HIERARCHY
ROOT Hips
{
	OFFSET 0.00000 0.00000 0.00000
	CHANNELS 6 Xposition Yposition Zposition Yrotation Zrotation Xrotation 
	JOINT Lumbar
	{
		OFFSET 0 0 0
		CHANNELS 3 Zrotation Xrotation Yrotation
		JOINT Neck
		{
			OFFSET 0.00 0.2701 0.00
			CHANNELS 3 Zrotation Xrotation Yrotation
			End Site
			{
				OFFSET 0.00 0.1379 0.00
			}
		}
		JOINT RightShoulder
		{
			OFFSET 0.0119 0.2289 0.1181
			CHANNELS 3 Zrotation Xrotation Yrotation
			JOINT RightElbow
			{
				OFFSET 0.00 -0.1475 0.00
				CHANNELS 2 Zrotation Yrotation
				JOINT RightWrist
				{
					OFFSET 0.00 -0.1605 0.00
					CHANNELS 2 Zrotation Xrotation
					End Site
					{
						OFFSET 0.0040 -0.1068 0.0006
					}
				}
			}
		}
		JOINT LeftShoulder
		{
			OFFSET 0.0119 0.2289 -0.1181
			CHANNELS 3 Zrotation Xrotation Yrotation
			JOINT LeftElbow
			{
				OFFSET 0.00 -0.1475 0.00
				CHANNELS 2 Zrotation Yrotation
				JOINT LeftWrist
				{
					OFFSET 0.00 -0.1605 0.00
					CHANNELS 2 Zrotation Xrotation
					End Site
					{
						OFFSET 0.0040 -0.1068 -0.0006
					}
				}
			}
		}
	}
	JOINT RightHip
	{
		OFFSET 0.0316 -0.0424 0.0458
		CHANNELS 3 Zrotation Xrotation Yrotation
		JOINT RightKnee
		{
			OFFSET 0.00 -0.2438 0.00
			CHANNELS 1 Zrotation
			JOINT RightAnkle
			{
				OFFSET 0.00 -0.2449 0.00
				CHANNELS 3 Zrotation Xrotation Yrotation
				End Site
				{
					OFFSET 0.1237 -0.0542 0.0051
				}
			}
		}
	}
	JOINT LeftHip
	{
		OFFSET 0.0316 -0.0424 -0.0458
		CHANNELS 3 Zrotation Xrotation Yrotation
		JOINT LeftKnee
		{
			OFFSET 0.00 -0.2438 0.00
			CHANNELS 1 Zrotation
			JOINT LeftAnkle
			{
				OFFSET 0.00 -0.2449 0.00
				CHANNELS 3 Zrotation Xrotation Yrotation
				End Site
				{
					OFFSET 0.1237 -0.0542 -0.0051
				}
			}
		}
	}
}
MOTION
Frames: 30
Frame Time: 0.02
0.00015 2e-05 -0.00022 -180.48139 -35.3657 -3.34111 44.20132 2.37646 -3.41278 -13.32773 -2.17451 -0.42386 -64.39897 -81.11922 -86.92544 6.79681 102.07104 8.57463 2.96495 81.12707 98.25552 -64.17325 5.32699 -100.60096 13.213 -0.64273 39.67784 -2.43211 -5.42527 -22.45438 -6.73846 -3.29189 -2.3763 43.81393 7.74615 0.88886 -27.84976 -6.4912 2.63689 2.01038
0.00014 1e-05 -0.00016 -180.42986 -35.1497 -3.33406 43.97127 2.36523 -3.43176 -13.3282 -2.15887 -0.42513 -64.3991 -81.07082 -86.41163 6.83981 102.0554 8.548 2.89341 81.27648 98.25167 -64.17283 5.32731 -100.61799 13.21149 -0.65791 39.41004 -2.43599 -5.44152 -22.41388 -6.73896 -3.29486 -2.37649 43.5644 7.74417 0.90653 -27.82296 -6.48954 2.63539 2.00681
0.00013 -0 -0.0001 -180.37856 -34.93461 -3.32707 43.74216 2.35405 -3.45062 -13.32871 -2.14325 -0.4264 -64.39923 -81.02249 -85.8983 6.88283 102.03976 8.52139 2.82195 81.42578 98.24775 -64.17241 5.32763 -100.635 13.20994 -0.67298 39.14336 -2.43988 -5.45775 -22.37355 -6.73947 -3.29782 -2.37667 43.31592 7.74217 0.92409 -27.79627 -6.48787 2.6339 2.00325
0.00012 -1e-05 -4e-05 -180.32721 -34.71933 -3.32005 43.51287 2.34287 -3.46953 -13.32919 -2.12765 -0.42767 -64.39936 -80.97424 -85.38594 6.92572 102.02416 8.49483 2.7506 81.57478 98.2439 -64.172 5.32795 -100.652 13.20843 -0.68811 38.87644 -2.44375 -5.47397 -22.33318 -6.73997 -3.30078 -2.37686 43.06722 7.7402 0.94169 -27.76956 -6.48621 2.63241 1.99969
0.00011 -2e-05 3e-05 -180.27558 -34.50302 -3.31297 43.28253 2.33163 -3.48861 -13.32963 -2.11206 -0.42894 -64.39948 -80.92594 -84.8734 6.96855 102.00858 8.46826 2.67922 81.72377 98.24015 -64.17158 5.32827 -100.66899 13.20697 -0.70336 38.60826 -2.44761 -5.49017 -22.29262 -6.74047 -3.30376 -2.37705 42.81734 7.73825 0.95942 -27.74271 -6.48455 2.6309 1.99612
0.0001 -3e-05 9e-05 -180.22499 -34.29049 -3.30617 43.05601 2.32056 -3.50699 -13.33028 -2.09635 -0.43021 -64.39961 -80.87752 -84.3584 7.01196 101.99282 8.44159 2.60759 81.87373 98.23585 -64.17117 5.32859 -100.68603 13.20524 -0.71806 38.34474 -2.45156 -5.50647 -22.25279 -6.74097 -3.30667 -2.37721 42.57179 7.73617 0.97663 -27.71638 -6.48289 2.62945 1.99261
9e-05 -4e-05 0.00015 -180.17238 -34.07068 -3.2988 42.82213 2.30918 -3.52675 -13.33051 -2.08091 -0.43149 -64.39974 -80.82944 -83.8492 7.05411 101.97745 8.41515 2.53655 82.02154 98.23268 -64.17074 5.32891 -100.703 13.20408 -0.73387 38.07223 -2.45532 -5.52259 -22.21154 -6.74148 -3.3097 -2.37743 42.31789 7.73435 0.99484 -27.68904 -6.48124 2.62789 1.98897
8e-05 -5e-05 0.00021 -180.1216 -33.85744 -3.29196 42.59489 2.29807 -3.54525 -13.33113 -2.06522 -0.43275 -64.39986 -80.781 -83.33416 7.09754 101.96169 8.38846 2.46493 82.17137 98.22842 -64.17033 5.32923 -100.71997 13.20235 -0.7486 37.80783 -2.45925 -5.53879 -22.17157 -6.74199 -3.31264 -2.3776 42.07153 7.73229 1.01217 -27.66262 -6.47957 2.62643 1.98545
7e-05 -6e-05 0.00028 -180.07319 -33.65276 -3.28577 42.3763 2.28733 -3.56216 -13.3322 -2.04922 -0.434 -64.39999 -80.73225 -82.8135 7.14209 101.94556 8.36162 2.39272 82.32366 98.22304 -64.16992 5.32954 -100.73721 13.20006 -0.76222 37.55398 -2.46344 -5.55547 -22.13326 -6.74247 -3.31542 -2.37768 41.83497 7.72992 1.02826 -27.63738 -6.47788 2.62508 1.98208
6e-05 -7e-05 0.00033 -180.01154 -33.40041 -3.27586 42.10954 2.27461 -3.58805 -13.33061 -2.03497 -0.43534 -64.40012 -80.68568 -82.32972 7.17885 101.93187 8.33612 2.32425 82.46178 98.22473 -64.16947 5.32988 -100.75368 13.20142 -0.78289 37.24136 -2.46628 -5.57052 -22.08571 -6.74303 -3.31897 -2.3782 41.5438 7.7293 1.05099 -27.60552 -6.47632 2.62309 1.97784
5e-05 -8e-05 0.00041 -179.97758 -33.2476 -3.27377 41.94337 2.26596 -3.59513 -13.33467 -2.01704 -0.4365 -64.40024 -80.63426 -81.76536 7.23293 101.91284 8.30747 2.24769 82.62976 98.2111 -64.16912 5.33018 -100.77126 13.19481 -0.78826 37.05149 -2.47186 -5.58831 -22.05745 -6.74346 -3.32097 -2.37785 41.36666 7.72501 1.06005 -27.5875 -6.47449 2.62242 1.97543
3e-05 -8e-05 0.00056 -180.02247 -33.37929 -3.29373 42.06465 2.26942 -3.54868 -13.3542 -1.98888 -0.43714 -64.4003 -80.57141 -80.99968 7.3281 101.88051 8.27289 2.1502 82.88056 98.15817 -64.16906 5.33028 -100.79637 13.16857 -0.75477 37.21227 -2.48594 -5.61945 -22.08425 -6.74342 -3.31824 -2.37471 41.51534 7.71024 1.02775 -27.60887 -6.47191 2.62566 1.97835
-0 -9e-05 0.00073 -180.09471 -33.6089 -3.32145 42.28486 2.27679 -3.48366 -13.37939 -1.95708 -0.43759 -64.40029 -80.50333 -80.14921 7.44204 101.84248 8.23467 2.04436 83.16099 98.08936 -64.16911 5.33042 -100.82185 13.13412 -0.70542 37.49384 -2.50261 -5.65236 -22.13003 -6.74327 -3.31404 -2.37078 41.77619 7.69179 0.98211 -27.64388 -6.46906 2.6302 1.98307
-3e-05 -0.0001 0.0009 -180.15249 -33.78622 -3.34522 42.45225 2.28176 -3.42841 -13.40209 -1.92703 -0.43812 -64.40037 -80.43644 -79.3248 7.55141 101.80629 8.19628 1.94143 83.42753 98.02596 -64.16912 5.33056 -100.84411 13.10168 -0.66119 37.711 -2.51742 -5.68053 -22.16571 -6.74326 -3.31084 -2.3675 41.97717 7.67542 0.94548 -27.67171 -6.46633 2.63393 1.98676
-5e-05 -0.00011 0.00106 -180.21861 -33.9964 -3.37072 42.65283 2.28936 -3.36763 -13.42462 -1.89649 -0.43866 -64.4004 -80.37458 -78.55358 7.64344 101.77362 8.16542 1.84206 83.6967 97.97004 -64.16912 5.33041 -100.87886 13.07559 -0.62539 37.96821 -2.53503 -5.72491 -22.20761 -6.74289 -3.30629 -2.36304 42.21562 7.65763 0.89767 -27.70368 -6.46361 2.63851 1.99126
-8e-05 -0.00011 0.00124 -180.2742 -34.16165 -3.39455 42.80796 2.29239 -3.31383 -13.44864 -1.86618 -0.43915 -64.40029 -80.30097 -77.65061 7.77685 101.7318 8.11822 1.73351 83.96644 97.8949 -64.16915 5.33112 -100.88818 13.03548 -0.56873 38.1711 -2.54753 -5.73644 -22.24111 -6.74323 -3.30416 -2.3608 42.40299 7.64153 0.86838 -27.73031 -6.46082 2.64175 1.99462
-0.0001 -0.00013 0.00148 -180.29101 -34.17567 -3.41109 42.81093 2.282 -3.28504 -13.4771 -1.83691 -0.4396 -64.40049 -80.19628 -76.41284 8.0136 101.66915 8.0251 1.60012 84.24003 97.76931 -64.16923 5.33213 -100.82115 12.94923 -0.45494 38.18994 -2.54436 -5.65244 -22.24617 -6.7455 -3.30956 -2.36527 42.41811 7.63459 0.90787 -27.73833 -6.45788 2.63977 1.99338
-0.00012 -0.00014 0.00174 -180.29689 -34.14162 -3.42583 42.76512 2.26683 -3.26371 -13.50653 -1.80807 -0.44 -64.39964 -80.07981 -75.04433 8.29307 101.59623 7.916 1.45835 84.51235 97.62507 -64.16931 5.3344 -100.72841 12.85126 -0.3218 38.15072 -2.5361 -5.53597 -22.24224 -6.74849 -3.31739 -2.37195 42.37857 7.62892 0.96432 -27.7406 -6.45488 2.6366 1.99109
-0.00013 -0.00016 0.002 -180.30965 -34.13169 -3.4419 42.74323 2.25377 -3.23822 -13.53439 -1.77941 -0.44042 -64.39982 -79.9688 -73.72977 8.55641 101.52692 7.81528 1.32104 84.77774 97.49034 -64.16948 5.33744 -100.65291 12.76445 -0.19917 38.141 -2.53084 -5.43748 -22.24282 -6.75114 -3.32381 -2.37738 42.36654 7.62015 1.00288 -27.74585 -6.45191 2.63478 1.98997
-0.00016 -0.00017 0.00225 -180.31502 -34.11571 -3.45603 42.71754 2.24118 -3.21536 -13.56722 -1.74917 -0.44086 -64.40087 -79.85764 -72.43356 8.80427 101.46476 7.70957 1.17944 85.07184 97.35109 -64.16948 5.33478 -100.55892 12.65139 -0.06682 38.12242 -2.5229 -5.32616 -22.24224 -6.7538 -3.33146 -2.38381 42.34732 7.62141 1.08172 -27.75001 -6.44892 2.62965 1.98612
-0.00017 -0.00019 0.00252 -180.3332 -34.09946 -3.47374 42.68672 2.22634 -3.18896 -13.58986 -1.72221 -0.44125 -64.39583 -79.74346 -71.0714 9.09711 101.38173 7.61068 1.04643 85.31051 97.21649 -64.16958 5.34432 -100.49113 12.592 0.04728 38.10686 -2.51915 -5.23292 -22.24172 -6.75665 -3.33717 -2.38871 42.32842 7.60276 1.08366 -27.75489 -6.44596 2.63104 1.98753
-0.00015 -0.0002 0.00285 -180.38625 -34.09496 -3.50115 42.65434 2.20718 -3.15167 -13.5841 -1.70558 -0.4415 -64.40469 -79.62864 -69.53883 9.47965 101.27675 7.53327 0.92593 85.35484 97.10356 -64.16998 5.387 -100.55976 12.67053 0.12683 38.11337 -2.52949 -5.20613 -22.24317 -6.75956 -3.33647 -2.38842 42.32485 7.5227 0.8432 -27.76311 -6.44313 2.65169 2.00499
-0.00012 -0.0002 0.0032 -180.45305 -34.09102 -3.53232 42.61768 2.18572 -3.11056 -13.56805 -1.69198 -0.44171 -64.39897 -79.51004 -67.9475 9.91058 101.14644 7.46368 0.81671 85.35238 96.99494 -64.16899 5.44197 -100.64808 12.80664 0.18364 38.12417 -2.54409 -5.19765 -22.24493 -6.76268 -3.33377 -2.38654 42.3225 7.42334 0.52822 -27.77217 -6.44033 2.67891 2.0276
-9e-05 -0.00021 0.00355 -180.51548 -34.08607 -3.56212 42.58223 2.16487 -3.07076 -13.55667 -1.67616 -0.44194 -64.3835 -79.39043 -66.39824 10.33478 101.00418 7.39111 0.71124 85.39681 96.88198 -64.17049 5.49147 -100.68536 12.92421 0.23698 38.13298 -2.55573 -5.17435 -22.24677 -6.76592 -3.33235 -2.38571 42.31858 7.33727 0.26628 -27.78083 -6.43747 2.7023 2.04686
-7e-05 -0.00022 0.00388 -180.56954 -34.08343 -3.5904 42.54892 2.14591 -3.0328 -13.54529 -1.66404 -0.44214 -64.4486 -79.28314 -64.78414 10.69523 100.95461 7.31487 0.56866 85.32764 96.7796 -64.1702 5.54052 -100.88616 13.00643 0.34836 38.14093 -2.57101 -5.17484 -22.24756 -6.76834 -3.32968 -2.38378 42.31798 7.23363 -0.07005 -27.78946 -6.43473 2.72861 2.06998
-3e-05 -0.00023 0.00425 -180.64458 -34.07579 -3.62281 42.50994 2.12228 -2.99027 -13.53153 -1.64477 -0.4424 -64.32805 -79.14793 -63.28704 11.20041 100.71361 7.24919 0.50536 85.49075 96.65494 -64.16571 5.59344 -100.76806 13.17956 0.33439 38.15127 -2.58041 -5.13371 -22.2505 -6.77245 -3.32881 -2.38349 42.31035 7.16013 -0.27684 -27.79831 -6.43184 2.75119 2.08678
4e-05 -0.00022 0.00473 -180.77332 -34.06267 -3.66529 42.46366 2.0884 -2.93365 -13.51309 -1.60617 -0.44277 -63.8236 -78.94826 -62.17821 12.08645 99.88422 7.20376 0.66483 86.1955 96.47757 -64.17959 5.65832 -99.61652 13.55514 -0.02968 38.1775 -2.56689 -4.94518 -22.26123 -6.78163 -3.3359 -2.39008 42.29309 7.19112 -0.04133 -27.80859 -6.42779 2.75513 2.08054
0.00013 -0.00021 0.00526 -180.9231 -34.04336 -3.71193 42.41095 2.04954 -2.87289 -13.49274 -1.56005 -0.4432 -63.11108 -78.71761 -61.18047 13.11877 98.8744 7.17007 0.9023 87.11948 96.27371 -64.15919 5.72905 -98.16764 14.0233 -0.51676 38.20464 -2.54821 -4.71873 -22.2738 -6.79243 -3.34442 -2.39804 42.26735 7.25041 0.31624 -27.81893 -6.42369 2.75619 2.06848
0.00022 -0.00021 0.00577 -181.06367 -34.02131 -3.7569 42.3563 2.01167 -2.81565 -13.47362 -1.51658 -0.44363 -62.40962 -78.49468 -60.09907 14.08692 97.99184 7.13568 1.10003 88.06287 96.07839 -64.16629 5.79027 -96.95652 14.47611 -0.94222 38.22446 -2.53579 -4.52919 -22.28427 -6.80216 -3.35055 -2.40402 42.23882 7.28539 0.57231 -27.82855 -6.42014 2.76323 2.06205
0.0003 -0.0002 0.00626 -181.20256 -34.02183 -3.80092 42.32097 1.97915 -2.75169 -13.4525 -1.4764 -0.44394 -62.05341 -78.30214 -59.15506 15.04206 96.92153 7.08202 1.31714 88.65356 95.90694 -64.22393 5.86782 -95.32709 14.83216 -1.39534 38.27228 -2.50764 -4.26048 -22.3 -6.81323 -3.3638 -2.41551 42.23728 7.3664 1.01357 -27.84097 -6.4145 2.75151 2.04359
